<svg width="32" height="33" viewBox="0 0 32 33" fill="none" xmlns="http://www.w3.org/2000/svg">
<path d="M17.8799 16.7525L23.6133 11.0325C23.8643 10.7815 24.0054 10.4409 24.0054 10.0859C24.0054 9.73079 23.8643 9.39026 23.6133 9.13919C23.3622 8.88812 23.0217 8.74707 22.6666 8.74707C22.3115 8.74707 21.971 8.88812 21.7199 9.13919L15.9999 14.8725L10.2799 9.13919C10.0288 8.88812 9.68832 8.74707 9.33325 8.74707C8.97818 8.74707 8.63766 8.88812 8.38659 9.13919C8.13551 9.39026 7.99446 9.73079 7.99446 10.0859C7.99446 10.4409 8.13551 10.7815 8.38659 11.0325L14.1199 16.7525L8.38659 22.4725C8.26161 22.5965 8.16242 22.7439 8.09473 22.9064C8.02704 23.0689 7.99219 23.2432 7.99219 23.4192C7.99219 23.5952 8.02704 23.7695 8.09473 23.932C8.16242 24.0944 8.26161 24.2419 8.38659 24.3659C8.51054 24.4908 8.658 24.59 8.82048 24.6577C8.98296 24.7254 9.15724 24.7603 9.33325 24.7603C9.50927 24.7603 9.68354 24.7254 9.84602 24.6577C10.0085 24.59 10.156 24.4908 10.2799 24.3659L15.9999 18.6325L21.7199 24.3659C21.8439 24.4908 21.9913 24.59 22.1538 24.6577C22.3163 24.7254 22.4906 24.7603 22.6666 24.7603C22.8426 24.7603 23.0169 24.7254 23.1794 24.6577C23.3418 24.59 23.4893 24.4908 23.6133 24.3659C23.7382 24.2419 23.8374 24.0944 23.9051 23.932C23.9728 23.7695 24.0077 23.5952 24.0077 23.4192C24.0077 23.2432 23.9728 23.0689 23.9051 22.9064C23.8374 22.7439 23.7382 22.5965 23.6133 22.4725L17.8799 16.7525Z" fill="black"/>
</svg>
