<svg width="32" height="33" viewBox="0 0 32 33" fill="none" xmlns="http://www.w3.org/2000/svg">
<g clip-path="url(#clip0_253_5250)">
<path d="M25.3333 24.752H6.66668C5.9303 24.752 5.33334 25.3489 5.33334 26.0853C5.33334 26.8217 5.9303 27.4186 6.66668 27.4186H25.3333C26.0697 27.4186 26.6667 26.8217 26.6667 26.0853C26.6667 25.3489 26.0697 24.752 25.3333 24.752Z" fill="#3d88d3"/>
<path d="M5.33334 23.4189V26.0856C5.33334 26.822 5.9303 27.4189 6.66668 27.4189C7.40306 27.4189 8.00001 26.822 8.00001 26.0856V23.4189C8.00001 22.6826 7.40306 22.0856 6.66668 22.0856C5.9303 22.0856 5.33334 22.6826 5.33334 23.4189Z" fill="#3d88d3"/>
<path d="M24 23.4189V26.0856C24 26.822 24.597 27.4189 25.3333 27.4189C26.0697 27.4189 26.6667 26.822 26.6667 26.0856V23.4189C26.6667 22.6826 26.0697 22.0856 25.3333 22.0856C24.597 22.0856 24 22.6826 24 23.4189Z" fill="#3d88d3"/>
<path d="M16 20.7516C15.7236 20.7537 15.4533 20.6699 15.2267 20.5116L9.89334 16.7516C9.60589 16.5477 9.41086 16.2383 9.3509 15.891C9.29093 15.5437 9.37091 15.1868 9.57334 14.8983C9.67439 14.7541 9.803 14.6313 9.95175 14.5371C10.1005 14.4429 10.2664 14.379 10.44 14.3493C10.6135 14.3195 10.7913 14.3245 10.9629 14.3638C11.1345 14.4031 11.2967 14.476 11.44 14.5783L16 17.765L20.5333 14.3516C20.8162 14.1395 21.1718 14.0484 21.5219 14.0984C21.872 14.1484 22.1878 14.3354 22.4 14.6183C22.6122 14.9012 22.7033 15.2568 22.6533 15.6069C22.6033 15.9569 22.4162 16.2728 22.1333 16.485L16.8 20.485C16.5692 20.6581 16.2885 20.7516 16 20.7516Z" fill="#3d88d3"/>
<path d="M16 18.0853C15.6464 18.0853 15.3072 17.9448 15.0572 17.6948C14.8071 17.4447 14.6667 17.1056 14.6667 16.752V6.08529C14.6667 5.73166 14.8071 5.39253 15.0572 5.14248C15.3072 4.89243 15.6464 4.75195 16 4.75195C16.3536 4.75195 16.6928 4.89243 16.9428 5.14248C17.1928 5.39253 17.3333 5.73166 17.3333 6.08529V16.752C17.3333 17.1056 17.1928 17.4447 16.9428 17.6948C16.6928 17.9448 16.3536 18.0853 16 18.0853Z" fill="#3d88d3"/>
</g>
<defs>
<clipPath id="clip0_253_5250">
<rect width="32" height="32" fill="white" transform="translate(0 0.751953)"/>
</clipPath>
</defs>
</svg>
