<svg width="24" height="25" viewBox="0 0 24 25" fill="none" xmlns="http://www.w3.org/2000/svg">
<g clip-path="url(#clip0_253_5268)">
<path d="M20.05 11.752H3.95C3.42533 11.752 3 12.1773 3 12.702V12.802C3 13.3266 3.42533 13.752 3.95 13.752H20.05C20.5747 13.752 21 13.3266 21 12.802V12.702C21 12.1773 20.5747 11.752 20.05 11.752Z" fill="black"/>
<path d="M20.05 16.752H3.95C3.42533 16.752 3 17.1773 3 17.702V17.802C3 18.3266 3.42533 18.752 3.95 18.752H20.05C20.5747 18.752 21 18.3266 21 17.802V17.702C21 17.1773 20.5747 16.752 20.05 16.752Z" fill="black"/>
<path d="M20.05 6.75195H3.95C3.42533 6.75195 3 7.17728 3 7.70195V7.80195C3 8.32662 3.42533 8.75195 3.95 8.75195H20.05C20.5747 8.75195 21 8.32662 21 7.80195V7.70195C21 7.17728 20.5747 6.75195 20.05 6.75195Z" fill="black"/>
</g>
<defs>
<clipPath id="clip0_253_5268">
<rect width="24" height="24" fill="white" transform="translate(0 0.751953)"/>
</clipPath>
</defs>
</svg>
