<svg width="67" height="41" viewBox="0 0 67 41" fill="none" xmlns="http://www.w3.org/2000/svg">
<path d="M34.9973 22.4163H54.7639L48.7139 29.683C48.5739 29.8515 48.4684 30.046 48.4034 30.2553C48.3385 30.4646 48.3154 30.6847 48.3356 30.9029C48.3762 31.3436 48.5902 31.7501 48.9306 32.033C49.271 32.3159 49.7098 32.452 50.1505 32.4114C50.5912 32.3707 50.9977 32.1567 51.2806 31.8163L59.6139 21.8163C59.67 21.7368 59.7201 21.6532 59.7639 21.5663C59.7639 21.483 59.8473 21.433 59.8806 21.3497C59.9562 21.1586 59.9957 20.9552 59.9973 20.7497C59.9957 20.5442 59.9562 20.3408 59.8806 20.1497C59.8806 20.0663 59.7973 20.0163 59.7639 19.933C59.7201 19.8461 59.67 19.7626 59.6139 19.683L51.2806 9.68301C51.1239 9.49487 50.9277 9.34357 50.7059 9.23987C50.4841 9.13617 50.2421 9.08261 49.9973 9.08301C49.6079 9.08225 49.2305 9.21788 48.9306 9.46634C48.7618 9.60626 48.6223 9.77809 48.5201 9.97201C48.4178 10.1659 48.3548 10.3781 48.3347 10.5964C48.3146 10.8147 48.3377 11.0348 48.4028 11.2441C48.4679 11.4535 48.5736 11.6479 48.7139 11.8163L54.7639 19.083H34.9973C34.5552 19.083 34.1313 19.2586 33.8188 19.5712C33.5062 19.8837 33.3306 20.3077 33.3306 20.7497C33.3306 21.1917 33.5062 21.6156 33.8188 21.9282C34.1313 22.2408 34.5552 22.4163 34.9973 22.4163Z" fill="#1A1A1A"/>
<rect x="5.18503" y="18.9014" width="51.4815" height="3.7037" rx="1.85185" fill="#1A1A1A"/>
</svg>
