<svg width="58" height="235" viewBox="0 0 58 235" fill="none" xmlns="http://www.w3.org/2000/svg">
<path id="Vector" d="M38.6235 36.736C32.9489 36.736 28.2449 35.0187 24.5115 31.584C20.9275 28 19.1356 23.5947 19.1356 18.368C19.1356 13.1413 20.9275 8.81067 24.5115 5.376C28.2449 1.792 32.9489 0 38.6235 0C44.1489 0 48.7035 1.792 52.2875 5.376C55.8715 8.81067 57.6636 13.1413 57.6636 18.368C57.6636 23.5947 55.8715 28 52.2875 31.584C48.7035 35.0187 44.1489 36.736 38.6235 36.736ZM54.0795 196C54.0795 209.739 50.6449 219.595 43.7756 225.568C37.0556 231.691 27.3489 234.752 14.6556 234.752H0.767578V208.096H9.72754C14.5062 208.096 17.8662 207.125 19.8076 205.184C21.7489 203.392 22.7195 200.405 22.7195 196.224V51.52H54.0795V196Z" fill="#EEEEEE"/>
</svg>
